<svg id="Layer_1" data-name="Layer 1" xmlns="http://www.w3.org/2000/svg" viewBox="0 0 204.13 100.03"><title>Artboard 1</title><path d="M30.32,1.39V-.13H0V32H1.51A37.83,37.83,0,0,1,30.32,1.39Z"/><path d="M63.1,83.28,37.58,18.11h-1.5V86.17c-.14,6.86-5.76,12.2-12.89,12.49V100H79.84V98.8C69.82,98.37,65.16,87.4,63.1,83.28Z"/><path id="_Path_" data-name="&lt;Path&gt;" d="M109.33,54.62l-1.64-.69c-.83,1.23-5.35,5.34-8.92-4-4.66-12.35-10.7-28.54-12.62-35.4C82.72,2.36,92.18,1.8,94.8,1.8V0h-55v1.5c10,.28,14.82,11.12,16.74,15.09L89.17,100h1.91l13.86-34.15h0Z"/><path d="M145,17c4.11,11.66,17.83,48.7,17.83,48.7L149.39,99.87h-1.92s-30.32-78.46-31.82-82.58S111.12,2.06,101,1.79V0h53.65V1.8C151.59,1.8,140.47,3.86,145,17Z"/><path d="M173.39,29.09l1.79,1.38c4.66-12.08,17.56-27.17,28.95-28.81V-.13H163.52V1.66C166.53,1.8,183.82,1.51,173.39,29.09Z"/></svg>